<svg width="223" height="67" viewBox="0 0 223 67" fill="none" xmlns="http://www.w3.org/2000/svg">
<path d="M215.066 66.0741H7.81161C3.50523 66.0741 0 62.5589 0 58.2558V7.80665C0 3.50193 3.50523 0 7.81161 0H215.066C219.371 0 223 3.50193 223 7.80665V58.2558C223 62.5589 219.371 66.0741 215.066 66.0741Z" fill="#A6A6A6"/>
<path d="M221.401 58.2576C221.401 61.7529 218.57 64.5842 215.068 64.5842H7.81161C4.31134 64.5842 1.47015 61.7529 1.47015 58.2576V7.80507C1.47015 4.3114 4.31134 1.47021 7.81161 1.47021H215.066C218.57 1.47021 221.399 4.3114 221.399 7.80507L221.401 58.2576Z" fill="black"/>
<path d="M49.767 32.6802C49.7191 27.3562 54.1262 24.7661 54.3277 24.6456C51.8318 21.0065 47.9631 20.5093 46.6037 20.4697C43.3545 20.1277 40.2028 22.4139 38.5476 22.4139C36.8594 22.4139 34.3106 20.5027 31.5636 20.5589C28.0286 20.6134 24.7216 22.66 22.9079 25.8382C19.1648 32.3184 21.9564 41.8413 25.5426 47.0793C27.3365 49.6447 29.4327 52.509 32.1764 52.4082C34.8607 52.2975 35.8633 50.6969 39.1026 50.6969C42.3122 50.6969 43.2537 52.4082 46.052 52.3438C48.9328 52.2975 50.7465 49.7669 52.4777 47.1785C54.5507 44.2382 55.3833 41.3425 55.4163 41.1938C55.3486 41.1707 49.8215 39.0613 49.767 32.6802Z" fill="white"/>
<path d="M44.481 17.024C45.9248 15.2185 46.9126 12.7622 46.6384 10.2695C44.5488 10.362 41.9355 11.7149 40.4307 13.4807C39.0993 15.0368 37.91 17.5872 38.2172 19.9857C40.5645 20.1608 42.9746 18.8013 44.481 17.024Z" fill="white"/>
<path d="M88.6136 52.0397H84.8623L82.8074 45.5826H75.6647L73.7073 52.0397H70.0551L77.1316 30.0569H81.5024L88.6136 52.0397ZM82.1879 42.8736L80.3296 37.1334C80.133 36.547 79.7646 35.1661 79.2212 32.9922H79.1551C78.9387 33.9272 78.5902 35.3081 78.1111 37.1334L76.2858 42.8736H82.1879V42.8736Z" fill="white"/>
<path d="M106.812 43.9194C106.812 46.6152 106.084 48.7461 104.627 50.3104C103.322 51.7029 101.701 52.3983 99.7669 52.3983C97.679 52.3983 96.1791 51.6484 95.2656 50.1485H95.1995V58.4986H91.6778V41.4069C91.6778 39.7121 91.6332 37.9727 91.5473 36.1887H94.6445L94.8411 38.7012H94.9072C96.0816 36.8081 97.864 35.8633 100.256 35.8633C102.126 35.8633 103.687 36.6017 104.936 38.0801C106.188 39.5601 106.812 41.506 106.812 43.9194ZM103.224 44.0482C103.224 42.5054 102.877 41.2335 102.18 40.2324C101.419 39.1885 100.396 38.6665 99.1144 38.6665C98.2456 38.6665 97.456 38.9572 96.7506 39.5304C96.0436 40.1085 95.5811 40.8634 95.3647 41.7984C95.2557 42.2345 95.2012 42.5913 95.2012 42.8721V45.5151C95.2012 46.668 95.5547 47.641 96.2617 48.4355C96.9687 49.2301 97.8871 49.6265 99.017 49.6265C100.343 49.6265 101.376 49.1144 102.114 48.0936C102.854 47.0711 103.224 45.7232 103.224 44.0482Z" fill="white"/>
<path d="M125.044 43.9194C125.044 46.6152 124.315 48.7461 122.857 50.3104C121.553 51.7029 119.933 52.3983 117.998 52.3983C115.91 52.3983 114.411 51.6484 113.499 50.1485H113.433V58.4986H109.911V41.4069C109.911 39.7121 109.866 37.9727 109.78 36.1887H112.878L113.074 38.7012H113.14C114.313 36.8081 116.095 35.8633 118.489 35.8633C120.357 35.8633 121.918 36.6017 123.17 38.0801C124.418 39.5601 125.044 41.506 125.044 43.9194ZM121.456 44.0482C121.456 42.5054 121.107 41.2335 120.41 40.2324C119.649 39.1885 118.629 38.6665 117.346 38.6665C116.475 38.6665 115.687 38.9572 114.98 39.5304C114.273 40.1085 113.813 40.8634 113.596 41.7984C113.489 42.2345 113.433 42.5913 113.433 42.8721V45.5151C113.433 46.668 113.786 47.641 114.49 48.4355C115.197 49.2284 116.115 49.6265 117.248 49.6265C118.575 49.6265 119.607 49.1144 120.346 48.0936C121.086 47.0711 121.456 45.7232 121.456 44.0482Z" fill="white"/>
<path d="M145.427 45.8751C145.427 47.745 144.778 49.2663 143.475 50.4408C142.043 51.7243 140.049 52.3652 137.487 52.3652C135.122 52.3652 133.225 51.9093 131.79 50.9958L132.606 48.0605C134.152 48.9954 135.848 49.4646 137.697 49.4646C139.023 49.4646 140.056 49.1639 140.797 48.566C141.536 47.968 141.904 47.1652 141.904 46.1642C141.904 45.2722 141.6 44.5206 140.991 43.9111C140.384 43.3015 139.372 42.7349 137.958 42.2113C134.109 40.7758 132.186 38.673 132.186 35.9078C132.186 34.1007 132.86 32.619 134.21 31.466C135.554 30.3114 137.348 29.7349 139.591 29.7349C141.592 29.7349 143.254 30.0834 144.58 30.7788L143.7 33.6498C142.461 32.9758 141.06 32.6388 139.492 32.6388C138.253 32.6388 137.285 32.9444 136.592 33.5523C136.005 34.0958 135.711 34.7581 135.711 35.5428C135.711 36.4116 136.047 37.1302 136.721 37.6951C137.307 38.2171 138.372 38.7821 139.919 39.3916C141.81 40.1531 143.199 41.0434 144.093 42.0643C144.983 43.0818 145.427 44.3554 145.427 45.8751Z" fill="white"/>
<path d="M157.071 38.8316H153.189V46.5275C153.189 48.485 153.873 49.4629 155.244 49.4629C155.874 49.4629 156.396 49.4084 156.809 49.2993L156.906 51.9737C156.212 52.233 155.299 52.3635 154.167 52.3635C152.777 52.3635 151.69 51.939 150.905 51.0916C150.124 50.2425 149.73 48.8187 149.73 46.8183V38.8283H147.418V36.1853H149.73V33.283L153.189 32.239V36.1853H157.071V38.8316Z" fill="white"/>
<path d="M174.586 43.9838C174.586 46.4203 173.889 48.4207 172.498 49.985C171.039 51.5956 169.103 52.3984 166.69 52.3984C164.364 52.3984 162.513 51.627 161.132 50.0841C159.751 48.5413 159.06 46.5938 159.06 44.2465C159.06 41.7902 159.77 39.7782 161.196 38.2139C162.618 36.648 164.538 35.865 166.951 35.865C169.277 35.865 171.148 36.6364 172.561 38.1809C173.912 39.6791 174.586 41.6134 174.586 43.9838ZM170.932 44.0978C170.932 42.6359 170.62 41.3822 169.987 40.3366C169.249 39.0712 168.193 38.4402 166.826 38.4402C165.41 38.4402 164.335 39.0729 163.596 40.3366C162.964 41.3838 162.651 42.6574 162.651 44.1639C162.651 45.6258 162.964 46.8795 163.596 47.9235C164.358 49.1888 165.421 49.8198 166.794 49.8198C168.139 49.8198 169.194 49.1756 169.956 47.8905C170.605 46.825 170.932 45.5581 170.932 44.0978Z" fill="white"/>
<path d="M186.033 39.2859C185.685 39.2215 185.313 39.1885 184.923 39.1885C183.684 39.1885 182.726 39.6559 182.052 40.5925C181.466 41.4185 181.172 42.4624 181.172 43.7228V52.0399H177.652L177.685 41.1806C177.685 39.3536 177.64 37.6902 177.553 36.1903H180.62L180.749 39.2231H180.846C181.218 38.1808 181.805 37.3417 182.607 36.7123C183.392 36.1457 184.239 35.8633 185.153 35.8633C185.478 35.8633 185.772 35.8864 186.033 35.9277V39.2859Z" fill="white"/>
<path d="M201.784 43.3643C201.784 43.9953 201.742 44.5272 201.655 44.9616H191.09C191.131 46.5276 191.641 47.7252 192.622 48.5511C193.513 49.2895 194.664 49.6595 196.078 49.6595C197.642 49.6595 199.07 49.4101 200.353 48.9096L200.905 51.3543C199.405 52.0084 197.634 52.3338 195.591 52.3338C193.133 52.3338 191.204 51.6103 189.799 50.165C188.399 48.7196 187.697 46.7787 187.697 44.3438C187.697 41.9536 188.349 39.9631 189.656 38.3757C191.023 36.6809 192.872 35.8335 195.198 35.8335C197.482 35.8335 199.212 36.6809 200.386 38.3757C201.316 39.722 201.784 41.387 201.784 43.3643ZM198.425 42.4508C198.449 41.4068 198.219 40.5049 197.742 39.7434C197.132 38.7639 196.195 38.2749 194.935 38.2749C193.784 38.2749 192.847 38.7523 192.132 39.7104C191.545 40.4719 191.197 41.3854 191.09 42.4492H198.425V42.4508Z" fill="white"/>
<path d="M81.0233 16.5334C81.0233 18.4776 80.4402 19.9412 79.2756 20.924C78.197 21.8309 76.6641 22.2851 74.6785 22.2851C73.694 22.2851 72.8516 22.2422 72.1462 22.1563V11.5332C73.0663 11.3846 74.0574 11.3086 75.1278 11.3086C77.0192 11.3086 78.4448 11.7199 79.4061 12.5425C80.4831 13.4725 81.0233 14.8023 81.0233 16.5334ZM79.198 16.5813C79.198 15.3209 78.8643 14.3546 78.197 13.6807C77.5296 13.0083 76.555 12.6714 75.2715 12.6714C74.7264 12.6714 74.2623 12.7077 73.8774 12.7837V20.8596C74.0905 20.8926 74.4803 20.9075 75.0469 20.9075C76.3717 20.9075 77.3942 20.5391 78.1144 19.8024C78.8346 19.0657 79.198 17.992 79.198 16.5813Z" fill="white"/>
<path d="M90.7015 18.2315C90.7015 19.4291 90.3596 20.4103 89.6757 21.18C88.9588 21.9713 88.009 22.3661 86.8229 22.3661C85.6799 22.3661 84.7697 21.9878 84.0908 21.2279C83.4135 20.4697 83.0749 19.5133 83.0749 18.3603C83.0749 17.1545 83.4234 16.165 84.1238 15.3969C84.8242 14.6288 85.7658 14.2439 86.9518 14.2439C88.0949 14.2439 89.0133 14.6222 89.7087 15.3804C90.3695 16.1171 90.7015 17.0686 90.7015 18.2315ZM88.9059 18.2876C88.9059 17.5691 88.7507 16.9529 88.4418 16.4392C88.0784 15.8181 87.5613 15.5076 86.889 15.5076C86.1936 15.5076 85.665 15.8181 85.3016 16.4392C84.991 16.9529 84.8374 17.579 84.8374 18.319C84.8374 19.0376 84.9927 19.6537 85.3016 20.1674C85.6766 20.7885 86.1985 21.0991 86.8725 21.0991C87.5332 21.0991 88.0519 20.7836 88.4252 20.1509C88.7457 19.6273 88.9059 19.0062 88.9059 18.2876Z" fill="white"/>
<path d="M103.678 14.4026L101.242 22.1894H99.6562L98.6469 18.8081C98.3909 17.964 98.1827 17.1248 98.0209 16.2923H97.9895C97.8391 17.148 97.631 17.9855 97.3634 18.8081L96.2914 22.1894H94.6874L92.3963 14.4026H94.1753L95.0558 18.1044C95.2689 18.9799 95.444 19.8141 95.5844 20.6036H95.6158C95.7446 19.9528 95.9577 19.1236 96.2583 18.1209L97.3634 14.4042H98.7741L99.8329 18.0416C100.089 18.9287 100.297 19.7827 100.457 20.6053H100.505C100.623 19.8041 100.799 18.9501 101.034 18.0416L101.979 14.4042H103.678V14.4026Z" fill="white"/>
<path d="M112.653 22.1894H110.922V17.7294C110.922 16.355 110.4 15.6679 109.353 15.6679C108.839 15.6679 108.424 15.8562 108.102 16.2345C107.783 16.6127 107.621 17.0587 107.621 17.5691V22.1877H105.89V16.6276C105.89 15.9437 105.869 15.202 105.828 14.3992H107.349L107.43 15.6167H107.478C107.679 15.2384 107.98 14.9262 108.375 14.6768C108.844 14.386 109.369 14.239 109.944 14.239C110.671 14.239 111.275 14.4736 111.756 14.9444C112.354 15.5209 112.653 16.3815 112.653 17.5245V22.1894V22.1894Z" fill="white"/>
<path d="M117.427 22.1894H115.697V10.8296H117.427V22.1894Z" fill="white"/>
<path d="M127.619 18.2315C127.619 19.4291 127.277 20.4103 126.593 21.18C125.876 21.9713 124.925 22.3661 123.74 22.3661C122.595 22.3661 121.685 21.9878 121.008 21.2279C120.331 20.4697 119.992 19.5133 119.992 18.3603C119.992 17.1545 120.341 16.165 121.041 15.3969C121.741 14.6288 122.683 14.2439 123.867 14.2439C125.012 14.2439 125.929 14.6222 126.626 15.3804C127.287 16.1171 127.619 17.0686 127.619 18.2315ZM125.822 18.2876C125.822 17.5691 125.666 16.9529 125.357 16.4392C124.996 15.8181 124.477 15.5076 123.806 15.5076C123.109 15.5076 122.581 15.8181 122.219 16.4392C121.908 16.9529 121.755 17.579 121.755 18.319C121.755 19.0376 121.91 19.6537 122.219 20.1674C122.594 20.7885 123.116 21.0991 123.79 21.0991C124.45 21.0991 124.968 20.7836 125.341 20.1509C125.663 19.6273 125.822 19.0062 125.822 18.2876Z" fill="white"/>
<path d="M135.997 22.1893H134.443L134.314 21.2923H134.266C133.734 22.0076 132.976 22.3661 131.991 22.3661C131.256 22.3661 130.661 22.1298 130.214 21.6607C129.807 21.2345 129.604 20.7043 129.604 20.0749C129.604 19.1235 130.001 18.3983 130.799 17.8961C131.595 17.394 132.715 17.1479 134.157 17.1594V17.0141C134.157 15.9883 133.618 15.4762 132.54 15.4762C131.771 15.4762 131.094 15.6694 130.509 16.0527L130.158 14.9162C130.881 14.4685 131.775 14.2439 132.829 14.2439C134.864 14.2439 135.885 15.3176 135.885 17.465V20.3326C135.885 21.1106 135.923 21.7301 135.997 22.1893ZM134.2 19.5133V18.3124C132.29 18.2794 131.335 18.803 131.335 19.8817C131.335 20.288 131.444 20.592 131.667 20.7951C131.89 20.9983 132.175 21.0991 132.513 21.0991C132.893 21.0991 133.248 20.9785 133.572 20.739C133.897 20.4978 134.097 20.1922 134.172 19.8172C134.19 19.733 134.2 19.6306 134.2 19.5133Z" fill="white"/>
<path d="M145.834 22.1894H144.297L144.217 20.9389H144.169C143.678 21.8904 142.842 22.3661 141.668 22.3661C140.729 22.3661 139.948 21.9978 139.329 21.261C138.709 20.5243 138.4 19.5679 138.4 18.3934C138.4 17.1331 138.736 16.1122 139.41 15.3325C140.062 14.6057 140.862 14.2423 141.813 14.2423C142.859 14.2423 143.591 14.5942 144.007 15.2995H144.04V10.8296H145.773V20.0915C145.773 20.8497 145.792 21.5485 145.834 22.1894ZM144.04 18.9055V17.6071C144.04 17.3825 144.023 17.2008 143.992 17.062C143.894 16.6458 143.685 16.2956 143.366 16.0131C143.044 15.7306 142.656 15.5886 142.208 15.5886C141.562 15.5886 141.057 15.8446 140.685 16.3583C140.317 16.8721 140.13 17.5278 140.13 18.329C140.13 19.0988 140.307 19.7232 140.662 20.2038C141.037 20.7159 141.542 20.972 142.175 20.972C142.743 20.972 143.197 20.7589 143.543 20.331C143.876 19.9362 144.04 19.4605 144.04 18.9055Z" fill="white"/>
<path d="M160.639 18.2315C160.639 19.4291 160.297 20.4103 159.613 21.18C158.897 21.9713 157.948 22.3661 156.761 22.3661C155.619 22.3661 154.709 21.9878 154.029 21.2279C153.351 20.4697 153.013 19.5133 153.013 18.3603C153.013 17.1545 153.361 16.165 154.062 15.3969C154.762 14.6288 155.704 14.2439 156.891 14.2439C158.033 14.2439 158.953 14.6222 159.647 15.3804C160.307 16.1171 160.639 17.0686 160.639 18.2315ZM158.845 18.2876C158.845 17.5691 158.69 16.9529 158.381 16.4392C158.016 15.8181 157.501 15.5076 156.827 15.5076C156.133 15.5076 155.604 15.8181 155.239 16.4392C154.929 16.9529 154.775 17.579 154.775 18.319C154.775 19.0376 154.93 19.6537 155.239 20.1674C155.614 20.7885 156.136 21.0991 156.81 21.0991C157.471 21.0991 157.991 20.7836 158.365 20.1509C158.684 19.6273 158.845 19.0062 158.845 18.2876Z" fill="white"/>
<path d="M169.947 22.1894H168.218V17.7294C168.218 16.355 167.696 15.6679 166.647 15.6679C166.133 15.6679 165.719 15.8562 165.398 16.2345C165.078 16.6127 164.918 17.0587 164.918 17.5691V22.1877H163.185V16.6276C163.185 15.9437 163.165 15.202 163.124 14.3992H164.643L164.724 15.6167H164.772C164.975 15.2384 165.276 14.9262 165.669 14.6768C166.14 14.386 166.664 14.239 167.24 14.239C167.965 14.239 168.57 14.4736 169.05 14.9444C169.65 15.5209 169.947 16.3815 169.947 17.5245V22.1894V22.1894Z" fill="white"/>
<path d="M181.598 15.6994H179.692V19.4821C179.692 20.4435 180.03 20.9242 180.701 20.9242C181.012 20.9242 181.269 20.8977 181.472 20.8432L181.517 22.1564C181.175 22.2853 180.726 22.3497 180.172 22.3497C179.489 22.3497 178.957 22.1416 178.572 21.7253C178.185 21.309 177.994 20.6087 177.994 19.6258V15.6994H176.856V14.4027H177.994V12.9755L179.69 12.4634V14.401H181.596V15.6994H181.598Z" fill="white"/>
<path d="M190.762 22.1894H189.03V17.7624C189.03 16.3666 188.508 15.6679 187.462 15.6679C186.659 15.6679 186.111 16.0726 185.81 16.882C185.759 17.0521 185.729 17.2602 185.729 17.5047V22.1877H184V10.8296H185.729V15.5225H185.762C186.307 14.6685 187.089 14.2423 188.101 14.2423C188.818 14.2423 189.411 14.4769 189.882 14.9477C190.468 15.5341 190.762 16.4062 190.762 17.5592V22.1894V22.1894Z" fill="white"/>
<path d="M200.216 17.9275C200.216 18.238 200.193 18.499 200.152 18.7121H194.96C194.983 19.4819 195.231 20.0683 195.711 20.4747C196.151 20.8381 196.717 21.0198 197.411 21.0198C198.179 21.0198 198.88 20.8975 199.511 20.6514L199.782 21.8539C199.043 22.1744 198.174 22.3346 197.168 22.3346C195.962 22.3346 195.013 21.9795 194.325 21.2692C193.635 20.5589 193.293 19.6058 193.293 18.4098C193.293 17.2354 193.612 16.2575 194.254 15.4778C194.925 14.6453 195.832 14.229 196.977 14.229C198.097 14.229 198.947 14.6453 199.522 15.4778C199.986 16.1385 200.216 16.9562 200.216 17.9275ZM198.564 17.4798C198.577 16.9661 198.463 16.5234 198.229 16.1501C197.928 15.6694 197.471 15.4282 196.851 15.4282C196.286 15.4282 195.825 15.6628 195.473 16.1336C195.186 16.5086 195.016 16.9562 194.96 17.4798H198.564Z" fill="white"/>
</svg>
