<svg width="200" height="37" viewBox="0 0 200 37" fill="none" xmlns="http://www.w3.org/2000/svg">
<g clip-path="url(#clip0_114_475)">
<path d="M0 0H14.6625C17.4554 0 19.55 0.698216 21.1016 1.86191C22.8084 3.25834 23.7393 5.27541 23.7393 7.75795C23.7393 10.6284 22.5756 12.4127 20.2483 13.4988V13.654C23.3514 14.6625 25.1358 17.4554 25.1358 20.7913C25.1358 23.9721 23.8945 26.4546 21.8774 28.0062C20.1707 29.2475 17.9984 29.7905 15.0504 29.7905H0V0ZM13.1885 11.6369C14.7401 11.6369 15.9038 10.7836 15.9038 8.99922C15.9038 7.29247 14.7401 6.4391 13.1109 6.4391H8.06827V11.5593H13.1885V11.6369ZM13.8867 23.1963C15.6711 23.1963 16.9899 22.1102 16.9899 20.1707C16.9899 18.076 15.5935 17.1451 13.8867 17.1451H8.14585V23.2739H13.8867V23.1963Z" fill="white"/>
<path d="M26.4547 0H34.135V29.8681H26.4547V0Z" fill="white"/>
<path d="M35.6866 19.2398C35.6866 12.4903 40.031 7.99072 46.7805 7.99072C53.5299 7.99072 57.7967 12.5679 57.7967 19.2398C57.7967 25.9892 53.5299 30.4888 46.7805 30.4888C40.031 30.4888 35.6866 25.9892 35.6866 19.2398ZM50.1164 19.2398C50.1164 15.5159 48.9527 13.1886 46.6253 13.1886C44.2979 13.1886 43.2118 15.5159 43.2118 19.2398C43.2118 22.9636 44.2979 25.3685 46.6253 25.3685C48.9527 25.291 50.1164 22.9636 50.1164 19.2398Z" fill="white"/>
<path d="M58.6501 19.2398C58.6501 12.4903 62.9946 7.99072 69.744 7.99072C76.4934 7.99072 80.6827 12.4903 80.6827 19.2398C80.6827 25.9892 76.4159 30.4888 69.6664 30.4888C62.9946 30.4888 58.6501 25.9892 58.6501 19.2398ZM73.0799 19.2398C73.0799 15.5159 71.9162 13.1886 69.5889 13.1886C67.2615 13.1886 66.1754 15.5159 66.1754 19.2398C66.1754 22.9636 67.2615 25.3685 69.5889 25.3685C71.9162 25.291 73.0799 22.9636 73.0799 19.2398Z" fill="white"/>
<path d="M82.2343 8.53372H89.3716V11.7145H89.5268C90.9232 9.23194 92.8627 7.91309 95.9659 7.91309C98.6812 7.91309 100.698 9.23194 101.707 11.5593H101.862C103.569 8.76646 105.818 7.91309 108.456 7.91309C113.421 7.91309 115.516 11.5593 115.516 16.4468V29.7905H108.068V17.7657C108.068 15.5935 107.37 14.197 105.508 14.197C103.646 14.197 102.715 15.9038 102.715 18.2312V29.7905H95.2677V17.7657C95.2677 15.5935 94.5695 14.197 92.7075 14.197C90.8456 14.197 89.9147 15.9038 89.9147 18.2312V29.7905H82.2343C82.2343 29.7905 82.2343 8.53372 82.2343 8.53372Z" fill="white"/>
<path d="M124.903 26.9977H124.825V29.7905H117.688V0H125.136V10.706H125.291C126.687 8.84406 128.627 7.83553 131.342 7.83553C136.695 7.83553 139.798 12.6455 139.798 19.0846C139.798 26.2995 136.462 30.4888 130.877 30.4888C128.549 30.4888 126.144 29.4026 124.903 26.9977ZM132.118 19.007C132.118 15.5935 130.877 13.3437 128.627 13.3437C126.299 13.3437 124.903 15.5935 124.903 19.007C124.903 22.4205 126.377 24.6703 128.627 24.6703C130.877 24.6703 132.118 22.4981 132.118 19.007Z" fill="white"/>
<path d="M140.652 19.1621C140.652 12.4903 145.074 7.91309 151.435 7.91309C154.616 7.91309 157.021 8.92162 158.883 10.7059C161.365 13.1109 162.452 16.8347 162.374 21.1792H148.099C148.41 23.8169 149.651 25.2133 151.901 25.2133C153.22 25.2133 154.383 24.5927 154.849 23.1962H162.064C160.822 28.0838 157.021 30.4887 151.668 30.4887C145.074 30.4111 140.652 25.9115 140.652 19.1621ZM148.099 16.9123H154.926C154.771 14.3522 153.375 13.0333 151.59 13.0333C149.496 12.9558 148.332 14.4298 148.099 16.9123Z" fill="white"/>
<path d="M170.83 12.18H170.985C172.537 9.23193 174.554 8.06824 177.114 8.06824C177.735 8.06824 178.123 8.14582 178.355 8.30098V14.8177H178.2C173.778 14.0419 171.218 16.1365 171.218 20.9464V29.8681H163.693V8.53371H170.83V12.18Z" fill="white"/>
<path d="M179.131 29.8682H186.346C186.656 30.7991 187.587 31.6525 189.372 31.6525C191.777 31.6525 192.63 30.1785 192.63 27.9287V26.3771H192.475C191.311 27.7735 189.682 28.782 187.355 28.782C182.777 28.782 178.743 25.3685 178.743 18.6967C178.743 12.5679 182.002 7.83557 186.967 7.83557C189.837 7.83557 191.544 8.99926 192.708 10.7836H192.863V8.45621H200V26.9201C200 30.3336 198.836 32.9713 197.052 34.5229C195.19 36.1521 192.552 36.8503 189.527 36.8503C183.786 36.9279 179.829 34.6005 179.131 29.8682ZM192.94 18.3864C192.94 15.7487 191.699 13.5765 189.527 13.5765C187.432 13.5765 186.113 15.4384 186.113 18.3864C186.113 21.2568 187.432 23.2739 189.527 23.2739C191.621 23.2739 192.94 21.1792 192.94 18.3864Z" fill="white"/>
</g>
<defs>
<clipPath id="clip0_114_475">
<rect width="200" height="36.9278" fill="white"/>
</clipPath>
</defs>
</svg>
