<svg width="79" height="74" viewBox="0 0 79 74" fill="none" xmlns="http://www.w3.org/2000/svg">
<path d="M76.2385 33.1068C74.2426 29.187 69.4445 27.6291 65.5247 29.6238C65.2157 29.7807 64.9229 29.9584 64.6418 30.1466L43.6196 44.6861H69.1436C70.3576 44.6861 71.6007 44.4096 72.7567 43.8206C76.6753 41.82 78.2356 37.0266 76.2385 33.1068Z" fill="white"/>
<path d="M55.8228 16.5923L44.8023 41.9421L67.5171 26.2269C68.0062 25.8876 68.4651 25.4833 68.8822 25.0256C71.7924 21.7936 71.5299 16.8166 68.299 13.9087C65.0705 10.9961 60.0911 11.2599 57.1821 14.4907C56.6047 15.1343 56.1539 15.8442 55.8228 16.5923Z" fill="white"/>
<path d="M55.7693 12.8549C56.0702 12.1462 56.2724 11.3829 56.356 10.5778C56.8173 6.20263 53.6398 2.28284 49.2658 1.82278C44.8906 1.36388 40.9708 4.53899 40.5119 8.91419C40.4666 9.35102 40.4538 9.78668 40.4805 10.2165H40.4724C40.4724 10.349 40.5305 10.4105 40.6792 10.4105C40.8256 10.4105 42.5938 10.4105 42.7948 10.4105C43.2269 10.4105 43.8729 10.5383 43.8729 10.8787C43.8729 11.139 42.7239 11.3829 42.0152 12.0649C41.2682 12.7817 40.929 14.0631 41.1079 15.2958V15.2888L44.6466 39.1236L55.7693 12.8549Z" fill="white"/>
<path d="M10.2584 44.6861H35.7789L14.7544 30.1466C14.4768 29.9584 14.1817 29.7807 13.875 29.6238C9.95285 27.6291 5.15476 29.187 3.16117 33.1068C1.16294 37.0266 2.72319 41.82 6.64182 43.8206C7.79894 44.4096 9.04319 44.6861 10.2584 44.6861Z" fill="white"/>
<path d="M23.5757 16.5924L34.5951 41.9409L11.8814 26.2257C11.3923 25.8865 10.9334 25.4822 10.5186 25.0244C7.60842 21.7924 7.86982 16.8154 11.0995 13.9075C14.3316 10.995 19.3062 11.2587 22.2176 14.4896C22.795 15.1343 23.2493 15.8442 23.5757 16.5924Z" fill="white"/>
<path d="M38.918 10.2165L34.7496 39.1236L23.628 12.8549C23.3283 12.1462 23.1284 11.3829 23.0436 10.5778C22.5836 6.20263 25.7598 2.28284 30.1327 1.82278C34.5079 1.36388 38.4289 4.53899 38.8854 8.91419C38.9331 9.35102 38.9424 9.78668 38.918 10.2165Z" fill="white"/>
<path d="M15.3736 51.8786C15.0971 50.5391 13.9981 50.1871 12.7724 50.0721C8.80615 49.705 8.10096 52.6663 8.10096 53.9187C8.10096 56.0563 8.72715 57.8106 12.6225 57.8106C13.3382 57.8106 15.3213 57.0891 15.3213 55.8902H20.921C20.698 59.4464 14.7067 60.3003 12.0951 60.3003C6.68244 60.3003 2.05049 59.2942 2.27354 53.9698C2.43735 50.1662 6.03185 47.4964 13.186 47.6614C17.1709 47.7578 21 48.9951 21.0163 51.8798H15.3736" fill="white"/>
<path d="M71.4602 51.8786C71.1848 50.5391 70.087 50.1871 68.8601 50.0721C64.895 49.705 64.191 52.6663 64.191 53.9187C64.191 56.0563 64.8149 57.8106 68.7103 57.8106C69.4271 57.8106 71.4102 57.0891 71.4102 55.8902H77.0076C76.7857 59.4464 70.7956 60.3003 68.184 60.3003C62.7725 60.3003 58.1394 59.2942 58.3636 53.9698C58.5227 50.1662 62.1172 47.4964 69.2702 47.6614C73.2574 47.7578 77.0866 48.9951 77.1063 51.8798H71.4602" fill="white"/>
<path d="M22.0154 47.917H29.2846L35.4884 56.6082H35.5384V47.917H40.1971V59.9819H33.2334L26.7276 51.2942H26.6776V59.9819H22.0154V47.917Z" fill="white"/>
<path d="M46.7494 57.4528H48.2121C50.9294 57.4528 51.9285 57.1681 51.9285 56.2341C51.9285 55.2291 50.6657 54.8922 48.6384 54.8922H46.7494V57.4528ZM46.7494 52.6047H48.2121C50.4647 52.6047 51.6637 52.4281 51.6637 51.4941C51.6637 50.4891 50.6657 50.1569 48.6384 50.1569H46.7494V52.6047V52.6047ZM41.6365 47.917H50.4636C54.711 47.917 57.2053 49.102 57.2053 50.8934C57.2053 51.946 56.1597 53.2518 53.8315 53.6352V53.6712C56.6372 53.8373 57.6723 55.609 57.6723 56.6709C57.6723 58.7981 55.2373 59.9819 50.4891 59.9819H41.6365V47.917V47.917Z" fill="white"/>
<path d="M76.2385 33.1068C74.2426 29.187 69.4445 27.6291 65.5247 29.6238C65.2157 29.7807 64.9229 29.9584 64.6418 30.1466L43.6196 44.6861H69.1436C70.3576 44.6861 71.6007 44.4096 72.7567 43.8206C76.6753 41.82 78.2356 37.0266 76.2385 33.1068Z" fill="white"/>
<path d="M55.8228 16.5923L44.8023 41.9421L67.5171 26.2269C68.0062 25.8876 68.4651 25.4833 68.8822 25.0256C71.7924 21.7936 71.5299 16.8166 68.299 13.9087C65.0705 10.9961 60.0911 11.2599 57.1821 14.4907C56.6047 15.1343 56.1539 15.8442 55.8228 16.5923Z" fill="white"/>
<path d="M55.7693 12.8549C56.0702 12.1462 56.2724 11.3829 56.356 10.5778C56.8173 6.20263 53.6398 2.28284 49.2658 1.82278C44.8906 1.36388 40.9708 4.53899 40.5119 8.91419C40.4666 9.35102 40.4538 9.78668 40.4805 10.2165H40.4724C40.4724 10.349 40.5305 10.4105 40.6792 10.4105C40.8256 10.4105 42.5938 10.4105 42.7948 10.4105C43.2269 10.4105 43.8729 10.5383 43.8729 10.8787C43.8729 11.139 42.7239 11.3829 42.0152 12.0649C41.2682 12.7817 40.929 14.0631 41.1079 15.2958V15.2888L44.6466 39.1236L55.7693 12.8549Z" fill="white"/>
<path d="M10.2584 44.6861H35.7789L14.7544 30.1466C14.4768 29.9584 14.1817 29.7807 13.875 29.6238C9.95285 27.6291 5.15476 29.187 3.16117 33.1068C1.16294 37.0266 2.72319 41.82 6.64182 43.8206C7.79894 44.4096 9.04319 44.6861 10.2584 44.6861Z" fill="white"/>
<path d="M23.5757 16.5924L34.5951 41.9409L11.8814 26.2257C11.3923 25.8865 10.9334 25.4822 10.5186 25.0244C7.60842 21.7924 7.86982 16.8154 11.0995 13.9075C14.3316 10.995 19.3062 11.2587 22.2176 14.4896C22.795 15.1343 23.2493 15.8442 23.5757 16.5924Z" fill="white"/>
<path d="M38.918 10.2165L34.7496 39.1236L23.628 12.8549C23.3283 12.1462 23.1284 11.3829 23.0436 10.5778C22.5836 6.20263 25.7598 2.28284 30.1327 1.82278C34.5079 1.36388 38.4289 4.53899 38.8854 8.91419C38.9331 9.35102 38.9424 9.78668 38.918 10.2165Z" fill="white"/>
</svg>
