<svg width="30" height="30" viewBox="0 0 30 30" fill="none" xmlns="http://www.w3.org/2000/svg">
<path d="M15 27.5C21.9036 27.5 27.5 21.9036 27.5 15C27.5 8.09644 21.9036 2.5 15 2.5C8.09644 2.5 2.5 8.09644 2.5 15C2.5 21.9036 8.09644 27.5 15 27.5Z" stroke="black" stroke-width="2" stroke-linecap="round" stroke-linejoin="round"/>
<path d="M10.0125 18.1376C10.2375 18.5126 10.5124 18.8626 10.8249 19.1751C13.1249 21.4751 16.8624 21.4751 19.1749 19.1751C20.1124 18.2376 20.6499 17.05 20.8249 15.8375" stroke="black" stroke-width="2" stroke-linecap="round" stroke-linejoin="round"/>
<path d="M9.17505 14.1625C9.35005 12.9375 9.88756 11.7625 10.8251 10.825C13.1251 8.52498 16.8625 8.52498 19.175 10.825C19.5 11.15 19.7625 11.5 19.9875 11.8625" stroke="black" stroke-width="2" stroke-linecap="round" stroke-linejoin="round"/>
<path d="M9.77515 21.4751V18.1376H13.1126" stroke="black" stroke-width="2" stroke-linecap="round" stroke-linejoin="round"/>
<path d="M20.2249 8.52502V11.8625H16.8875" stroke="black" stroke-width="2" stroke-linecap="round" stroke-linejoin="round"/>
</svg>
