<svg width="140" height="37" viewBox="0 0 140 37" fill="none" xmlns="http://www.w3.org/2000/svg">
<g clip-path="url(#clip0_114_515)">
<path d="M13.4781 3.4166H16.545C18.4127 3.14145 20.3201 3.38337 22.06 4.11606C24.2428 5.42932 25.826 7.54353 26.472 10.0077C26.9293 11.299 26.9293 11.299 28.0323 10.8417H28.8932V0.618755H0.0269257V2.42121H1.21063C1.72502 2.41765 2.23367 2.52938 2.69921 2.74818C3.16475 2.96699 3.57536 3.28731 3.90087 3.68563C5.00387 5.46118 5.19218 7.45196 5.19218 17.8094C5.19218 28.8125 4.95006 31.5027 3.90087 32.8747C3.64185 33.2274 3.3065 33.5171 2.91986 33.7221C2.53322 33.927 2.10527 34.042 1.66797 34.0584C0.0269257 34.3543 0.0269257 34.3274 0.0269257 35.0538C-0.0638255 35.2967 -0.0638255 35.5642 0.0269257 35.8071H18.2398C18.3604 35.5695 18.4232 35.3068 18.4232 35.0403C18.4232 34.7739 18.3604 34.5112 18.2398 34.2736C17.7987 34.1509 17.3491 34.061 16.8947 34.0046C16.4031 33.9462 15.9173 33.8472 15.442 33.7087C14.7614 33.2118 14.2223 32.5459 13.8778 31.7769C13.5334 31.0078 13.3956 30.1622 13.4781 29.3236C13.2091 27.548 13.0746 24.2928 13.0746 21.6026V19.4773H14.1507C15.4914 19.4363 16.8313 19.5812 18.1322 19.9078C18.7555 20.2929 19.286 20.8109 19.6859 21.4247C20.0859 22.0386 20.3453 22.7332 20.4458 23.4589L20.688 24.2928H22.329V12.3751H20.8225L20.5803 13.5319C20.4785 14.274 20.2039 14.9819 19.7787 15.5987C19.3536 16.2154 18.7896 16.7238 18.1322 17.083C17.4956 17.2725 16.8249 17.3184 16.1684 17.2175H13.0746V14.3121C13.0746 11.299 13.236 4.95004 13.3436 3.95465L13.4781 3.4166ZM139.381 24.7502C138.11 22.7035 136.126 21.1992 133.812 20.5265C132.039 19.9721 130.399 19.0561 128.997 17.8363C128.681 17.5311 128.445 17.1534 128.309 16.736C128.173 16.3187 128.142 15.8744 128.217 15.442C128.219 14.5937 128.557 13.7809 129.158 13.1822C129.566 12.7557 130.081 12.4478 130.65 12.2914C131.218 12.135 131.819 12.1361 132.387 12.2944C133.563 12.6296 134.626 13.2766 135.464 14.167C136.303 15.0574 136.885 16.1579 137.148 17.352C137.579 18.5626 137.633 18.5626 138.413 18.2398L138.897 18.0515V11.3528L138.547 11.1914C135.899 10.2612 133.089 9.87683 130.288 10.0615C127.876 10.1226 125.574 11.082 123.832 12.7517C123.042 13.4912 122.423 14.3945 122.019 15.3983C121.614 16.402 121.434 17.482 121.491 18.5626C121.506 20.2148 122.162 21.7965 123.321 22.9746C124.601 24.2337 126.172 25.1577 127.894 25.6649C132.064 27.3059 133.274 28.3551 133.274 30.2652C133.292 31.0707 133.036 31.8583 132.547 32.4987C132.058 33.1391 131.366 33.5943 130.584 33.7894C129.645 33.9958 128.672 33.9958 127.733 33.7894C126.503 33.312 125.405 32.5479 124.53 31.5606C123.654 30.5733 123.028 29.3913 122.702 28.113L122.352 27.2521H121.868C121.636 27.2693 121.409 27.3238 121.195 27.4135H120.926V35.0538H121.384C123.201 35.6584 125.076 36.0731 126.979 36.2913H129.669C130.836 36.3769 132.009 36.2678 133.14 35.9685C134.576 35.7035 135.917 35.0675 137.031 34.1236C138.145 33.1797 138.992 31.9608 139.489 30.588C139.81 29.8212 139.975 28.9981 139.973 28.1668C140.079 26.9957 139.875 25.8174 139.381 24.7502V24.7502ZM114.039 10.8417C112.427 10.1648 110.69 9.8365 108.942 9.87822C107.194 9.91995 105.475 10.3308 103.897 11.0838C102.414 11.8093 101.099 12.8378 100.038 14.1028C98.9769 15.3678 98.1928 16.8413 97.7364 18.4281C97.1545 20.1592 96.9079 21.9852 97.01 23.8086C96.9907 24.8007 97.0719 25.7921 97.2521 26.7679C97.6866 29.167 98.8448 31.3758 100.571 33.0974C102.298 34.8191 104.51 35.9712 106.91 36.3989C108.473 36.5959 110.055 36.5959 111.618 36.3989C113.24 36.113 114.792 35.5195 116.191 34.6503C117.349 34.0015 118.328 33.0775 119.043 31.96C118.997 31.7847 118.916 31.6204 118.805 31.4771C118.694 31.3338 118.556 31.2144 118.397 31.1261C118.09 31.2372 117.801 31.3912 117.537 31.5834C116.198 32.4653 114.618 32.9073 113.017 32.8478C111.954 32.9197 110.888 32.7542 109.897 32.3633C108.906 31.9725 108.014 31.3661 107.287 30.588C106.724 30.0651 106.259 29.4455 105.915 28.7586C105.079 27.0862 104.628 25.2476 104.596 23.3782V22.329H119.5V21.7909C119.533 21.2534 119.533 20.7143 119.5 20.1768C119.495 18.2772 118.987 16.4129 118.028 14.7733C117.069 13.1337 115.692 11.7772 114.039 10.8417V10.8417ZM106.533 20.1499H104.65V18.5626C105.269 14.5004 106.802 12.0792 108.686 12.0792C110.569 12.0792 111.376 14.4735 111.726 18.8586V20.0961H110.111L106.533 20.1499ZM67.8478 9.95388C66.9182 9.91783 65.9941 10.1119 65.1576 10.5188C63.3393 11.4018 61.8707 12.8705 60.9877 14.6887L60.638 15.3344V9.95388H60.5035C60.1806 9.95388 50.2268 11.9447 49.9039 12.0792C49.5811 12.2137 49.6887 12.2406 49.6887 12.7248C49.6887 13.2091 49.6887 13.2898 49.9039 13.3167L50.9531 13.5319C51.247 13.5391 51.5353 13.6131 51.7964 13.7483C52.0574 13.8834 52.2842 14.0762 52.4597 14.3121C53.1322 15.1998 53.2667 16.7602 53.2667 23.4051C53.3996 26.3965 53.2736 29.3938 52.8901 32.3636C52.7998 32.8114 52.5728 33.2201 52.2403 33.5333C51.9078 33.8465 51.4862 34.0488 51.0338 34.1122L50.1192 34.3005H49.7694V35.0538C49.6718 35.3047 49.6718 35.5831 49.7694 35.834H64.8079V35.0538C64.86 34.7964 64.86 34.5311 64.8079 34.2736C63.9024 34.2383 63.002 34.1213 62.1176 33.9239C61.636 33.672 61.242 33.2801 60.9875 32.7999C60.733 32.3197 60.6299 31.7736 60.6918 31.2337C60.4766 29.6733 60.369 25.0999 60.4228 21.6026C60.4766 18.1053 60.4228 17.8901 60.7187 17.648C61.6189 16.9577 62.7329 16.6055 63.8663 16.6526C64.9346 16.6759 65.9835 16.9427 66.9331 17.4327C67.2623 17.6155 67.6155 17.7514 67.9823 17.8363C67.9823 17.8363 70.6726 11.3259 70.6726 11.03C70.3283 10.6299 69.8897 10.322 69.3965 10.1341C68.9033 9.94624 68.371 9.88429 67.8478 9.95388V9.95388ZM49.7156 21.2529C49.6217 19.3304 49.0698 17.4583 48.1058 15.7924C47.1418 14.1264 45.7937 12.715 44.1737 11.6756C42.2486 10.6371 40.1067 10.0644 37.9202 10.0037C35.7336 9.94293 33.5632 10.3958 31.5834 11.3259C28.7842 12.802 26.6707 15.3112 25.6918 18.3205C24.6807 21.6898 24.6807 25.2817 25.6918 28.651C26.2218 30.4924 27.2126 32.1683 28.5703 33.5204C30.2614 35.1704 32.4419 36.2277 34.7848 36.5334C36.2887 36.6592 37.8005 36.6592 39.3044 36.5334C39.8578 36.4492 40.4058 36.3325 40.9454 36.1837C43.1352 35.5711 45.1052 34.3476 46.625 32.6563C48.1448 30.965 49.1515 28.8759 49.5273 26.6334C49.7959 24.853 49.8591 23.0477 49.7156 21.2529V21.2529ZM38.5242 34.7041C35.834 35.5111 33.8163 32.9016 33.1438 27.4135C32.8968 24.5403 32.8968 21.6511 33.1438 18.7779C33.6818 14.3659 35.0538 12.133 37.1791 12.133C37.6079 12.1064 38.0368 12.1829 38.43 12.3561C38.8231 12.5293 39.1691 12.7941 39.4389 13.1284C41.2414 14.9308 42.1291 18.5088 42.1291 23.8893C42.353 26.9344 41.8744 29.9901 40.7302 32.8209C40.225 33.6465 39.4433 34.2661 38.5242 34.5696V34.7041V34.7041ZM86.9485 10.4919C86.1894 10.3942 85.4209 10.3942 84.6618 10.4919C83.2046 10.4907 81.7642 10.8026 80.4381 11.4066L79.6042 11.7563V5.91852C79.7499 3.94837 79.7499 1.97015 79.6042 0C79.2813 0 69.0046 1.96387 68.8432 2.04458C68.7639 2.2432 68.7639 2.46471 68.8432 2.66334C68.8432 3.22829 68.8432 3.20138 70.0538 3.47041C70.3937 3.54663 70.7202 3.6736 71.0223 3.84704C71.5474 4.34086 71.8969 4.99265 72.0177 5.7033C72.324 7.75064 72.4231 9.82363 72.3136 11.8909V35.5111L73.04 35.6726C74.1161 35.9147 77.1561 36.4258 78.1514 36.5334C80.1391 36.6915 82.1361 36.6915 84.1238 36.5334C86.33 36.3081 88.4328 35.485 90.2058 34.1529C91.9788 32.8208 93.3547 31.0301 94.1853 28.9739C94.6804 27.6541 95.0234 26.2822 95.2075 24.8847C95.3677 22.9917 95.3045 21.0865 95.0192 19.2083C94.7306 17.103 93.8014 15.1374 92.3576 13.5781C90.9139 12.0188 89.0255 10.9414 86.9485 10.4919V10.4919ZM79.9001 34.2467C79.9001 33.897 79.6311 22.1138 79.6849 17.4058V13.7202L80.465 13.5319C80.9914 13.4565 81.5259 13.4565 82.0523 13.5319C82.6344 13.4727 83.22 13.6049 83.7202 13.9085C84.7249 14.6019 85.5592 15.5142 86.1603 16.5766C86.7614 17.639 87.1137 18.824 87.1906 20.0423C87.3866 22.0013 87.3866 23.9749 87.1906 25.9339C87.0296 28.7811 85.9326 31.4954 84.07 33.6549C83.5413 34.157 82.8774 34.4937 82.1599 34.6234C81.617 34.7178 81.0618 34.7178 80.5188 34.6234C80.0077 34.6234 80.0077 34.4619 80.0077 34.2467H79.9001Z" fill="white"/>
</g>
<defs>
<clipPath id="clip0_114_515">
<rect width="140" height="36.6679" fill="white"/>
</clipPath>
</defs>
</svg>
