<svg width="30" height="30" viewBox="0 0 30 30" fill="none" xmlns="http://www.w3.org/2000/svg">
<path d="M24.1249 9.89986V16.3374C24.1249 20.1874 21.925 21.8373 18.625 21.8373H7.63744C7.07494 21.8373 6.53745 21.7874 6.03745 21.6749C5.72495 21.6249 5.42496 21.5374 5.14996 21.4374C3.27496 20.7374 2.13745 19.1124 2.13745 16.3374V9.89986C2.13745 6.04986 4.33744 4.3999 7.63744 4.3999H18.625C21.425 4.3999 23.4375 5.5874 23.975 8.2999C24.0625 8.7999 24.1249 9.31236 24.1249 9.89986Z" stroke="black" stroke-width="2" stroke-miterlimit="10" stroke-linecap="round" stroke-linejoin="round"/>
<path d="M27.8763 13.65V20.0875C27.8763 23.9375 25.6763 25.5875 22.3763 25.5875H11.3888C10.4638 25.5875 9.62633 25.4626 8.90133 25.1876C7.41383 24.6376 6.40132 23.5001 6.03882 21.6751C6.53882 21.7876 7.07632 21.8375 7.63882 21.8375H18.6263C21.9263 21.8375 24.1263 20.1875 24.1263 16.3375V9.90001C24.1263 9.31251 24.0763 8.78755 23.9763 8.30005C26.3513 8.80005 27.8763 10.475 27.8763 13.65Z" stroke="black" stroke-width="2" stroke-miterlimit="10" stroke-linecap="round" stroke-linejoin="round"/>
<path d="M13.123 16.4247C14.9456 16.4247 16.423 14.9473 16.423 13.1247C16.423 11.3022 14.9456 9.82471 13.123 9.82471C11.3005 9.82471 9.823 11.3022 9.823 13.1247C9.823 14.9473 11.3005 16.4247 13.123 16.4247Z" stroke="black" stroke-width="2" stroke-miterlimit="10" stroke-linecap="round" stroke-linejoin="round"/>
<path d="M5.97485 10.3748V15.8748" stroke="black" stroke-width="2" stroke-miterlimit="10" stroke-linecap="round" stroke-linejoin="round"/>
<path d="M20.2771 10.3752V15.8753" stroke="black" stroke-width="2" stroke-miterlimit="10" stroke-linecap="round" stroke-linejoin="round"/>
</svg>
