<svg width="223" height="67" viewBox="0 0 223 67" fill="none" xmlns="http://www.w3.org/2000/svg">
<g clip-path="url(#clip0_126_668)">
<path d="M214.736 66.0734H8.26253C3.72002 66.0734 0.003479 62.3569 0.003479 57.8144V8.26003C0.003479 3.71752 3.72002 0.000976562 8.26253 0.000976562H214.736C219.278 0.000976562 222.995 3.71752 222.995 8.26003V57.8144C222.995 62.3569 219.278 66.0734 214.736 66.0734Z" fill="#100F0D"/>
<path d="M214.736 0.000976562H8.26253C3.72002 0.000976562 0.003479 3.71752 0.003479 8.26003V57.8144C0.003479 62.3569 3.72002 66.0734 8.26253 66.0734H214.736C219.278 66.0734 222.995 62.3569 222.995 57.8144V8.26003C222.995 3.71752 219.278 0.000976562 214.736 0.000976562V0.000976562ZM214.736 1.32176C218.561 1.32176 221.673 4.43446 221.673 8.26003V57.8144C221.673 61.6399 218.561 64.7526 214.736 64.7526H8.26253C4.43697 64.7526 1.32562 61.6399 1.32562 57.8144V8.26003C1.32562 4.43446 4.43697 1.32176 8.26253 1.32176H214.736" fill="#A2A2A1"/>
<path d="M176.641 49.5557H179.723V28.9046H176.641V49.5557ZM204.403 36.3441L200.87 45.2968H200.764L197.097 36.3441H193.777L199.278 48.8569L196.141 55.8176H199.355L207.831 36.3448L204.403 36.3441ZM186.922 47.2099C185.915 47.2099 184.506 46.7046 184.506 45.4562C184.506 43.8623 186.26 43.2513 187.773 43.2513C189.128 43.2513 189.767 43.543 190.589 43.9418C190.35 45.8549 188.703 47.2098 186.922 47.2098L186.922 47.2099ZM187.296 35.8924C185.064 35.8924 182.753 36.8758 181.797 39.0542L184.532 40.1963C185.117 39.0542 186.205 38.6826 187.349 38.6826C188.942 38.6826 190.563 39.6382 190.589 41.339V41.5513C190.031 41.2325 188.835 40.7544 187.375 40.7544C184.425 40.7544 181.423 42.3745 181.423 45.4033C181.423 48.1662 183.842 49.9464 186.551 49.9464C188.622 49.9464 189.767 49.0166 190.482 47.9269H190.589V49.5218H193.566V41.6041C193.566 37.9378 190.827 35.8924 187.296 35.8924V35.8924ZM168.247 38.858H163.863V31.7798H168.247C170.551 31.7798 171.859 33.6872 171.859 35.3188C171.859 36.9191 170.551 38.858 168.247 38.858ZM168.167 28.9051H160.782V49.5561H163.863V41.7327H168.167C171.583 41.7327 174.941 39.2601 174.941 35.3196C174.941 31.3798 171.583 28.906 168.167 28.906L168.167 28.9051ZM127.895 47.2134C125.765 47.2134 123.983 45.4299 123.983 42.9826C123.983 40.5068 125.765 38.6982 127.895 38.6982C129.997 38.6982 131.647 40.5069 131.647 42.9826C131.647 45.4299 129.997 47.2134 127.895 47.2134ZM131.434 37.5001H131.327C130.636 36.6754 129.304 35.9302 127.629 35.9302C124.115 35.9302 120.896 39.0177 120.896 42.9826C120.896 46.9205 124.115 49.9808 127.629 49.9808C129.304 49.9808 130.636 49.2355 131.327 48.3845H131.434V49.3949C131.434 52.0837 129.997 53.5199 127.682 53.5199C125.793 53.5199 124.622 52.163 124.143 51.0189L121.455 52.1364C122.226 53.9985 124.275 56.2879 127.682 56.2879C131.302 56.2879 134.362 54.1585 134.362 48.969V36.3558H131.434L131.434 37.5001ZM136.491 49.555H139.577V28.904H136.491V49.555ZM144.128 42.7426C144.048 40.0281 146.231 38.6446 147.8 38.6446C149.025 38.6446 150.062 39.257 150.409 40.1345L144.128 42.7426ZM153.708 40.4004C153.122 38.8312 151.34 35.9302 147.694 35.9302C144.074 35.9302 141.067 38.7776 141.067 42.9556C141.067 46.8941 144.048 49.981 148.039 49.981C151.259 49.981 153.122 48.0124 153.895 46.8676L151.499 45.2707C150.701 46.4418 149.61 47.2135 148.039 47.2135C146.47 47.2135 145.352 46.4948 144.634 45.0844L154.027 41.1993L153.708 40.4004ZM78.8675 38.0859V41.0663H85.9991C85.7862 42.7428 85.2274 43.9667 84.3757 44.8184C83.3375 45.8559 81.7142 47.0006 78.8673 47.0006C74.4764 47.0006 71.0438 43.4614 71.0438 39.0706C71.0438 34.6797 74.4764 31.1401 78.8673 31.1401C81.2359 31.1401 82.9652 32.0717 84.2426 33.2692L86.3455 31.1665C84.562 29.4636 82.194 28.1597 78.8673 28.1597C72.8523 28.1597 67.7963 33.0563 67.7963 39.0706C67.7963 45.0843 72.8523 49.981 78.8673 49.981C82.1135 49.981 84.5621 48.9164 86.4778 46.9207C88.4472 44.9513 89.0594 42.1839 89.0594 39.9482C89.0594 39.2571 89.0058 38.6184 88.8994 38.0859H78.8675ZM97.1683 47.2134C95.0389 47.2134 93.2027 45.457 93.2027 42.9556C93.2027 40.4275 95.0389 38.6983 97.1683 38.6983C99.2969 38.6983 101.133 40.4275 101.133 42.9556C101.133 45.457 99.2969 47.2134 97.1683 47.2134ZM97.1683 35.9302C93.2819 35.9302 90.1157 38.884 90.1157 42.9556C90.1157 47.0006 93.2819 49.981 97.1683 49.981C101.053 49.981 104.22 47.0006 104.22 42.9556C104.22 38.884 101.053 35.9302 97.1683 35.9302V35.9302ZM112.552 47.2134C110.424 47.2134 108.587 45.457 108.587 42.9556C108.587 40.4275 110.424 38.6983 112.552 38.6983C114.681 38.6983 116.517 40.4275 116.517 42.9556C116.517 45.457 114.681 47.2134 112.552 47.2134ZM112.552 35.9302C108.667 35.9302 105.5 38.884 105.5 42.9556C105.5 47.0006 108.667 49.981 112.552 49.981C116.438 49.981 119.604 47.0006 119.604 42.9556C119.604 38.884 116.438 35.9302 112.552 35.9302" fill="white"/>
<path d="M34.2206 32.0859L16.6358 50.751C16.6365 50.7549 16.6378 50.7581 16.6384 50.762C17.1777 52.7889 19.029 54.2812 21.226 54.2812C22.1043 54.2812 22.9289 54.0438 23.636 53.627L23.6922 53.594L43.4871 42.1715L34.2215 32.0857" fill="#EB3131"/>
<path d="M52.0123 28.9082L51.9954 28.8967L43.4493 23.9424L33.821 32.51L43.4828 42.1705L51.9838 37.2655C53.4742 36.4609 54.486 34.8897 54.486 33.0778C54.486 31.279 53.4878 29.7156 52.0121 28.9083" fill="#F6B60B"/>
<path d="M16.6333 15.325C16.5276 15.7148 16.472 16.1231 16.472 16.5471V49.5301C16.472 49.9533 16.527 50.363 16.634 50.7515L34.8258 32.5633L16.634 15.3254" fill="#0052B4"/>
<path d="M34.3507 33.0387L43.4532 23.939L23.6805 12.475C22.9618 12.0446 22.123 11.7961 21.2254 11.7961C19.0283 11.7961 17.1746 13.2912 16.6352 15.3204C16.6345 15.3224 16.6345 15.3238 16.6345 15.3255L34.3506 33.0391" fill="#29BA38"/>
<path d="M78.2891 16.1576H73.4705V17.3501H77.0813C76.9832 18.3232 76.596 19.0871 75.9431 19.642C75.2901 20.197 74.4564 20.4757 73.4705 20.4757C72.389 20.4757 71.4728 20.0989 70.7219 19.3505C69.9862 18.5865 69.612 17.6418 69.612 16.5037C69.612 15.3656 69.9862 14.4208 70.7219 13.6569C71.4728 12.9085 72.389 12.5342 73.4705 12.5342C74.0255 12.5342 74.5546 12.6297 75.0397 12.8388C75.525 13.0478 75.9146 13.3395 76.2192 13.7138L77.1355 12.7975C76.7199 12.3251 76.1934 11.9638 75.5403 11.7005C74.8873 11.4372 74.206 11.3109 73.4703 11.3109C72.0277 11.3109 70.8044 11.8115 69.8055 12.8104C68.8066 13.8118 68.3059 15.0455 68.3059 16.5037C68.3059 17.9619 68.8066 19.1983 69.8055 20.1972C70.8043 21.1959 72.0277 21.6967 73.4703 21.6967C74.9854 21.6967 76.1933 21.2114 77.1225 20.2254C77.9406 19.4048 78.3587 18.295 78.3587 16.9064C78.3587 16.6716 78.3303 16.4211 78.289 16.1578L78.2891 16.1576ZM80.1559 11.5326V21.4746H85.9603V20.2537H81.4334V17.0999H85.5165V15.9075H81.4334V12.7561H85.9603V11.5326L80.1559 11.5326ZM94.0996 12.7561V11.5326H87.2677V12.7561H90.0449V21.4746H91.3225V12.7561H94.0996ZM100.285 11.5326H99.0072V21.4746H100.285V11.5326ZM108.717 12.7561V11.5326H101.886V12.7561H104.663V21.4746H105.94V12.7561H108.717ZM121.609 12.8258C120.623 11.8115 119.415 11.3108 117.973 11.3108C116.527 11.3108 115.32 11.8115 114.333 12.8103C113.348 13.7963 112.862 15.0325 112.862 16.5036C112.862 17.9747 113.348 19.2111 114.333 20.1971C115.319 21.1958 116.527 21.6966 117.973 21.6966C119.402 21.6966 120.623 21.1958 121.609 20.1971C122.595 19.2111 123.08 17.9748 123.08 16.5036C123.08 15.0454 122.595 13.8116 121.609 12.8258V12.8258ZM115.25 13.6569C115.985 12.9084 116.889 12.5341 117.973 12.5341C119.054 12.5341 119.957 12.9084 120.68 13.6569C121.416 14.3924 121.777 15.3524 121.777 16.5036C121.777 17.6574 121.416 18.6148 120.68 19.3504C119.957 20.0988 119.054 20.4756 117.973 20.4756C116.889 20.4756 115.985 20.0988 115.25 19.3504C114.53 18.5993 114.168 17.6573 114.168 16.5036C114.168 15.3524 114.53 14.4079 115.25 13.6569V13.6569ZM126.116 15.2829L126.061 13.3651H126.116L131.169 21.4745H132.503V11.5325H131.226V17.35L131.28 19.2678H131.226L126.394 11.5325H124.838V21.4745H126.116V15.2829Z" fill="white" stroke="white" stroke-width="0.26666" stroke-miterlimit="10"/>
</g>
<defs>
<clipPath id="clip0_126_668">
<rect width="223" height="66.0737" fill="white"/>
</clipPath>
</defs>
</svg>
