<svg width="200" height="33" viewBox="0 0 200 33" fill="none" xmlns="http://www.w3.org/2000/svg">
<g clip-path="url(#clip0_114_473)">
<path fill-rule="evenodd" clip-rule="evenodd" d="M199.973 6.6687L183.894 25.8637H199.973V30.7412H177.562V25.6087L193.699 6.6687H178.682V1.90495H199.974V6.6687M167.101 1.8562V6.6687H158.134V30.7412H153.279V6.6687H144.314V1.8562H167.101ZM128.535 20.9587C130.204 20.1278 131.608 18.8481 132.59 17.2634C133.572 15.6787 134.093 13.8517 134.094 11.9875C134.094 6.69245 129.746 1.96245 124.331 1.8562H113.681V30.7412H118.537V22.0425H122.937L132.949 32.2262L136.324 28.8787L128.536 20.9587H128.535ZM123.98 17.2762H118.537V6.6987H123.98C126.94 6.6987 129.35 9.06995 129.35 11.9887C129.35 14.9075 126.94 17.2762 123.98 17.2762ZM92.1412 1.8562H86.3112L75.2263 30.7412H80.315L82.3925 25.1137H96.0637L98.1387 30.7412H103.229L92.1412 1.8562V1.8562ZM84.2412 20.6112L89.2312 7.5737L94.2125 20.6112H84.2412ZM65.8249 1.8562V20.13C65.8249 26.325 60.8125 31.3637 54.6438 31.3637C48.4763 31.3637 43.4575 26.3237 43.4575 20.13V1.8562H48.3087V20.13C48.2024 23.6975 51.0912 26.5987 54.6462 26.5987C58.1924 26.5987 61.0812 23.6975 61.0112 20.13V1.8562H65.8249ZM28.0925 25.205C30.0003 22.608 31.0271 19.4686 31.0225 16.2462C31.0225 7.90245 24.2537 1.1062 15.9449 1.1062C7.6287 1.1062 0.867432 7.90245 0.867432 16.2462C0.867432 24.5975 7.6287 31.3862 15.9449 31.3862C19.2124 31.3862 22.2437 30.3387 24.7162 28.5524L28.4962 32.3462L31.8512 28.9812L28.0925 25.205V25.205ZM24.6812 21.78L19.11 16.1862L15.7587 19.5575L21.3012 25.12C19.6887 26.1045 17.8356 26.6245 15.9462 26.6225C10.245 26.6225 5.61124 21.9712 5.61124 16.2474C5.61124 10.53 10.245 5.87245 15.9462 5.87245C21.6375 5.87245 26.2774 10.5287 26.2774 16.2474C26.2789 18.2058 25.7255 20.1245 24.6812 21.7812V21.78Z" fill="white"/>
</g>
<defs>
<clipPath id="clip0_114_473">
<rect width="200" height="32.5" fill="white"/>
</clipPath>
</defs>
</svg>
