<svg width="30" height="30" viewBox="0 0 30 30" fill="none" xmlns="http://www.w3.org/2000/svg">
<path d="M13.1124 2.78745L6.87495 5.12495C5.43745 5.66245 4.26245 7.36243 4.26245 8.89993V18.1874C4.26245 19.6624 5.23746 21.5999 6.42496 22.4874L11.7999 26.5C13.5624 27.825 16.4624 27.825 18.2249 26.5L23.6 22.4874C24.7875 21.5999 25.7624 19.6624 25.7624 18.1874V8.89993C25.7624 7.36243 24.5874 5.66245 23.1499 5.12495L16.9124 2.78745C15.8499 2.39995 14.1499 2.39995 13.1124 2.78745Z" stroke="black" stroke-width="2" stroke-linecap="round" stroke-linejoin="round"/>
<path d="M15.0001 13.65C14.9501 13.65 14.8876 13.65 14.8376 13.65C13.6626 13.6125 12.7251 12.6375 12.7251 11.45C12.7251 10.2375 13.7126 9.25 14.9251 9.25C16.1376 9.25 17.1251 10.2375 17.1251 11.45C17.1126 12.65 16.1751 13.6125 15.0001 13.65Z" stroke="black" stroke-width="2" stroke-linecap="round" stroke-linejoin="round"/>
<path d="M12.5125 17.15C11.3125 17.95 11.3125 19.2624 12.5125 20.0624C13.875 20.9749 16.1125 20.9749 17.475 20.0624C18.675 19.2624 18.675 17.95 17.475 17.15C16.125 16.2375 13.8875 16.2375 12.5125 17.15Z" stroke="black" stroke-width="2" stroke-linecap="round" stroke-linejoin="round"/>
</svg>
