<svg width="30" height="30" viewBox="0 0 30 30" fill="none" xmlns="http://www.w3.org/2000/svg">
<path d="M22.5 23.5749H21.55C20.55 23.5749 19.6 23.9624 18.9 24.6624L16.7625 26.775C15.7875 27.7375 14.2 27.7375 13.225 26.775L11.0875 24.6624C10.3875 23.9624 9.425 23.5749 8.4375 23.5749H7.5C5.425 23.5749 3.75 21.9125 3.75 19.8625V6.22491C3.75 4.17491 5.425 2.51245 7.5 2.51245H22.5C24.575 2.51245 26.25 4.17491 26.25 6.22491V19.8625C26.25 21.9 24.575 23.5749 22.5 23.5749Z" stroke="black" stroke-width="2" stroke-miterlimit="10" stroke-linecap="round" stroke-linejoin="round"/>
<path d="M8.75 11.4502C8.75 10.2877 9.7 9.33765 10.8625 9.33765C12.025 9.33765 12.975 10.2877 12.975 11.4502C12.975 13.8002 9.63749 14.0502 8.89999 16.2877C8.74999 16.7502 9.1375 17.2127 9.625 17.2127H12.975" stroke="black" stroke-width="2" stroke-linecap="round" stroke-linejoin="round"/>
<path d="M20.0499 17.2001V10.0626C20.0499 9.73763 19.8374 9.45005 19.5249 9.36255C19.2124 9.27505 18.875 9.40005 18.7 9.67505C17.8 11.1251 16.825 12.7751 15.975 14.2251C15.8375 14.4626 15.8375 14.7751 15.975 15.0126C16.1125 15.2501 16.375 15.4 16.6625 15.4H21.25" stroke="black" stroke-width="2" stroke-linecap="round" stroke-linejoin="round"/>
</svg>
